<svg width="256" height="256" viewBox="0 0 256 256" fill="none" xmlns="http://www.w3.org/2000/svg">
  <rect width="256" height="256" rx="48" fill="#F5F5F7"/>
  <path
    d="M36 88C36 79.1634 43.1634 72 52 72H58C66.8366 72 74 79.1634 74 88V184"
    stroke="#243647"
    stroke-width="8"
    stroke-linecap="round"
    stroke-linejoin="round"
  />
  <path
    d="M70 190L103.349 119.744C106.646 112.798 113.655 108.364 121.343 108.364H205.989C214.596 108.364 220.403 117.17 216.997 125.075L188.099 192.166C184.928 199.529 177.681 204.273 169.664 204.273H84.4632C73.2266 204.273 65.1853 200.142 70 190Z"
    fill="#F5F5F7"
    stroke="#243647"
    stroke-width="8"
    stroke-linejoin="round"
  />
  <path
    d="M82 118V48H112V102H152V48H182V118"
    stroke="#243647"
    stroke-width="8"
    stroke-linejoin="round"
  />
</svg>
